<svg width="16" height="16" viewBox="0 0 16 16" fill="none" xmlns="http://www.w3.org/2000/svg">
<path fill-rule="evenodd" clip-rule="evenodd" d="M7.9998 15.2C11.9763 15.2 15.1998 11.9764 15.1998 7.99999C15.1998 4.02354 11.9763 0.799988 7.9998 0.799988C4.02335 0.799988 0.799805 4.02354 0.799805 7.99999C0.799805 11.9764 4.02335 15.2 7.9998 15.2ZM6.8362 5.56359C6.48473 5.21212 5.91488 5.21212 5.56341 5.56359C5.21194 5.91506 5.21194 6.48491 5.56341 6.83638L6.72701 7.99999L5.56341 9.16359C5.21194 9.51506 5.21194 10.0849 5.56341 10.4364C5.91488 10.7879 6.48473 10.7879 6.8362 10.4364L7.9998 9.27278L9.16341 10.4364C9.51488 10.7879 10.0847 10.7879 10.4362 10.4364C10.7877 10.0849 10.7877 9.51506 10.4362 9.16359L9.2726 7.99999L10.4362 6.83638C10.7877 6.48491 10.7877 5.91506 10.4362 5.56359C10.0847 5.21212 9.51488 5.21212 9.16341 5.56359L7.9998 6.7272L6.8362 5.56359Z" fill="white"/>
</svg>
