<svg width="14" height="17" viewBox="0 0 14 17" fill="none" xmlns="http://www.w3.org/2000/svg">
<path d="M11.2426 11.9126C10.6185 12.5367 9.38909 13.7661 8.41369 14.7415C7.63264 15.5226 6.36745 15.5226 5.5864 14.7416C4.62886 13.7841 3.42126 12.5765 2.75736 11.9126C0.414214 9.56942 0.414214 5.77043 2.75736 3.42728C5.10051 1.08414 8.89949 1.08414 11.2426 3.42728C13.5858 5.77043 13.5858 9.56942 11.2426 11.9126Z" stroke="#007C92" stroke-width="2" stroke-linecap="round" stroke-linejoin="round"/>
<path d="M9.25 7.66992C9.25 8.91256 8.24264 9.91992 7 9.91992C5.75736 9.91992 4.75 8.91256 4.75 7.66992C4.75 6.42728 5.75736 5.41992 7 5.41992C8.24264 5.41992 9.25 6.42728 9.25 7.66992Z" stroke="#007C92" stroke-width="2" stroke-linecap="round" stroke-linejoin="round"/>
</svg>
